<svg viewBox="0 0 3726 1230" fill="none" xmlns="http://www.w3.org/2000/svg">
<rect x="923" width="2803" height="1230" rx="400" fill="#E1002D" fill-opacity="0.9"/>
<path d="M1339.72 439.781L1201.05 889H1053.78L1262.77 320.25H1356.12L1339.72 439.781ZM1454.56 889L1315.5 439.781L1297.53 320.25H1392.06L1602.22 889H1454.56ZM1449.09 676.891V782.75H1157.3V676.891H1449.09ZM1808.73 792.125V289H1941.16V889H1822.41L1808.73 792.125ZM1549.36 682.75V674.547C1549.36 642.516 1552.88 613.349 1559.91 587.047C1566.94 560.484 1577.35 537.698 1591.16 518.688C1604.96 499.417 1622.15 484.573 1642.72 474.156C1663.29 463.74 1686.99 458.531 1713.81 458.531C1737.77 458.531 1758.73 464.13 1776.7 475.328C1794.67 486.266 1810.04 501.63 1822.8 521.422C1835.56 541.214 1845.97 564.391 1854.05 590.953C1862.12 617.255 1868.24 645.641 1872.41 676.109V685.875C1868.24 714.521 1862.12 741.604 1854.05 767.125C1845.97 792.385 1835.56 814.781 1822.8 834.312C1810.04 853.844 1794.54 869.208 1776.31 880.406C1758.34 891.344 1737.25 896.812 1713.03 896.812C1686.21 896.812 1662.51 891.474 1641.94 880.797C1621.62 870.12 1604.57 855.146 1590.77 835.875C1577.22 816.604 1566.94 793.948 1559.91 767.906C1552.88 741.865 1549.36 713.479 1549.36 682.75ZM1681 674.547V682.75C1681 698.635 1682.04 713.349 1684.12 726.891C1686.21 740.432 1689.72 752.411 1694.67 762.828C1699.88 772.984 1706.65 780.927 1714.98 786.656C1723.58 792.385 1734.12 795.25 1746.62 795.25C1763.55 795.25 1777.48 791.214 1788.42 783.141C1799.62 775.068 1807.82 763.609 1813.03 748.766C1818.5 733.922 1820.84 716.474 1820.06 696.422V665.562C1820.58 648.375 1819.41 633.271 1816.55 620.25C1813.68 606.969 1809.12 595.901 1802.88 587.047C1796.89 578.193 1789.2 571.552 1779.83 567.125C1770.71 562.438 1759.91 560.094 1747.41 560.094C1735.17 560.094 1724.75 562.958 1716.16 568.688C1707.82 574.417 1701.05 582.49 1695.84 592.906C1690.64 603.062 1686.86 615.172 1684.52 629.234C1682.17 643.036 1681 658.141 1681 674.547ZM1944.94 289H2076.58V785.094L2062.91 889H1944.94V289ZM2335.95 672.984V681.188C2335.95 713.219 2332.7 742.385 2326.19 768.688C2319.68 794.99 2309.65 817.776 2296.11 837.047C2282.57 856.057 2265.51 870.771 2244.94 881.188C2224.36 891.604 2200.02 896.812 2171.89 896.812C2146.37 896.812 2124.49 891.344 2106.27 880.406C2088.04 869.208 2072.8 853.844 2060.56 834.312C2048.32 814.521 2038.43 791.734 2030.88 765.953C2023.32 739.911 2017.33 712.047 2012.91 682.359V672.594C2017.33 643.167 2023.32 615.562 2030.88 589.781C2038.43 563.74 2048.32 540.953 2060.56 521.422C2072.8 501.63 2087.91 486.266 2105.88 475.328C2124.1 464.13 2145.85 458.531 2171.11 458.531C2199.49 458.531 2223.97 463.87 2244.55 474.547C2265.38 485.224 2282.57 500.198 2296.11 519.469C2309.65 538.74 2319.68 561.396 2326.19 587.438C2332.7 613.479 2335.95 641.995 2335.95 672.984ZM2204.31 681.188V672.984C2204.31 657.62 2203.4 643.167 2201.58 629.625C2199.76 616.083 2196.5 604.104 2191.81 593.688C2187.12 583.271 2180.48 575.068 2171.89 569.078C2163.3 563.089 2152.1 560.094 2138.3 560.094C2124.23 560.094 2112.39 562.438 2102.75 567.125C2093.38 571.812 2085.82 578.583 2080.09 587.438C2074.62 596.031 2070.72 606.708 2068.38 619.469C2066.03 631.969 2064.99 646.161 2065.25 662.047V692.906C2064.73 714.521 2066.68 733.01 2071.11 748.375C2075.54 763.74 2083.22 775.458 2094.16 783.531C2105.09 791.604 2120.07 795.641 2139.08 795.641C2153.14 795.641 2164.47 792.906 2173.06 787.438C2181.92 781.969 2188.56 774.156 2192.98 764C2197.41 753.844 2200.41 741.734 2201.97 727.672C2203.53 713.609 2204.31 698.115 2204.31 681.188ZM2461.61 289V889H2329.58V289H2461.61ZM2454.45 681.969V673.766C2454.45 642.776 2458.88 614.26 2467.73 588.219C2476.59 561.917 2489.61 539.13 2506.8 519.859C2523.98 500.589 2545.21 485.615 2570.47 474.938C2595.73 464 2624.9 458.531 2657.97 458.531C2691.3 458.531 2720.6 464 2745.86 474.938C2771.38 485.615 2792.73 500.589 2809.92 519.859C2827.11 539.13 2840.13 561.917 2848.98 588.219C2857.84 614.26 2862.27 642.776 2862.27 673.766V681.969C2862.27 712.698 2857.84 741.214 2848.98 767.516C2840.13 793.557 2827.11 816.344 2809.92 835.875C2792.73 855.146 2771.51 870.12 2746.25 880.797C2720.99 891.474 2691.82 896.812 2658.75 896.812C2625.68 896.812 2596.38 891.474 2570.86 880.797C2545.34 870.12 2523.98 855.146 2506.8 835.875C2489.61 816.344 2476.59 793.557 2467.73 767.516C2458.88 741.214 2454.45 712.698 2454.45 681.969ZM2586.09 673.766V681.969C2586.09 697.854 2587.27 712.698 2589.61 726.5C2591.95 740.302 2595.86 752.411 2601.33 762.828C2606.8 772.984 2614.22 780.927 2623.59 786.656C2632.97 792.385 2644.69 795.25 2658.75 795.25C2672.55 795.25 2684.01 792.385 2693.12 786.656C2702.5 780.927 2709.92 772.984 2715.39 762.828C2720.86 752.411 2724.77 740.302 2727.11 726.5C2729.45 712.698 2730.62 697.854 2730.62 681.969V673.766C2730.62 658.401 2729.45 643.948 2727.11 630.406C2724.77 616.604 2720.86 604.495 2715.39 594.078C2709.92 583.401 2702.5 575.068 2693.12 569.078C2683.75 563.089 2672.03 560.094 2657.97 560.094C2644.17 560.094 2632.58 563.089 2623.2 569.078C2614.09 575.068 2606.8 583.401 2601.33 594.078C2595.86 604.495 2591.95 616.604 2589.61 630.406C2587.27 643.948 2586.09 658.401 2586.09 673.766ZM3027.38 795.25C3039.61 795.25 3050.03 793.036 3058.62 788.609C3067.48 783.922 3074.12 777.411 3078.55 769.078C3083.23 760.484 3085.45 750.198 3085.19 738.219H3209.02C3209.28 769.99 3201.46 797.854 3185.58 821.812C3169.95 845.51 3148.6 864 3121.52 877.281C3094.69 890.302 3064.35 896.812 3030.5 896.812C2997.43 896.812 2968.52 891.474 2943.78 880.797C2919.04 869.859 2898.34 854.755 2881.67 835.484C2865.27 815.953 2852.9 793.167 2844.56 767.125C2836.49 741.083 2832.45 712.828 2832.45 682.359V673.375C2832.45 642.906 2836.49 614.651 2844.56 588.609C2852.9 562.307 2865.27 539.521 2881.67 520.25C2898.34 500.719 2918.91 485.615 2943.39 474.938C2968.13 464 2996.91 458.531 3029.72 458.531C3064.88 458.531 3095.86 465.172 3122.69 478.453C3149.77 491.734 3170.99 511.005 3186.36 536.266C3201.72 561.526 3209.28 592.125 3209.02 628.062H3085.19C3085.45 615.302 3083.49 603.844 3079.33 593.688C3075.16 583.531 3068.65 575.458 3059.8 569.469C3051.2 563.219 3040.14 560.094 3026.59 560.094C3013.05 560.094 3002.11 563.089 2993.78 569.078C2985.45 575.068 2979.07 583.401 2974.64 594.078C2970.47 604.495 2967.61 616.474 2966.05 630.016C2964.74 643.557 2964.09 658.01 2964.09 673.375V682.359C2964.09 697.984 2964.74 712.698 2966.05 726.5C2967.61 740.042 2970.6 752.021 2975.03 762.438C2979.46 772.594 2985.84 780.667 2994.17 786.656C3002.51 792.385 3013.57 795.25 3027.38 795.25ZM3326.08 288.609V889H3194.44V288.609H3326.08ZM3596.39 466.344L3412.8 681.578L3316.7 777.672L3259.28 694.078L3339.36 589.781L3438.58 466.344H3596.39ZM3455.38 889L3342.48 696.422L3439.75 627.281L3606.16 889H3455.38Z" fill="white"/>
<path d="M353.109 320.25L457.797 567.125L562.875 320.25H710.531L527.719 684.703V889H388.266V684.703L205.062 320.25H353.109ZM888.141 466.344V557.75H633.453V466.344H888.141ZM686.969 361.266H818.609V751.109C818.609 762.307 819.911 771.031 822.516 777.281C825.12 783.271 829.547 787.568 835.797 790.172C842.307 792.516 850.901 793.688 861.578 793.688C869.13 793.688 875.38 793.557 880.328 793.297C885.276 792.776 889.964 792.125 894.391 791.344V885.484C883.193 889.13 871.474 891.865 859.234 893.688C846.995 895.771 833.974 896.812 820.172 896.812C792.047 896.812 767.958 892.385 747.906 883.531C728.115 874.677 713.01 860.745 702.594 841.734C692.177 822.724 686.969 797.984 686.969 767.516V361.266Z" fill="black"/>
</svg>
